<?xml version="1.0" encoding="UTF-8"?><svg id="Layer_1" xmlns="http://www.w3.org/2000/svg" width="8in" height="8in" viewBox="0 0 576 576"><g><polygon points="268.99 19.683 92.422 215.497 400.771 215.497 268.99 19.683" fill="#0a1b28"/><polygon points="268.99 19.683 400.771 215.497 519.752 155.73 268.99 19.683" fill="#082337"/><polygon points="268.99 19.683 61.839 159.048 92.422 215.497 268.99 19.683" fill="#324051"/><polygon points="92.422 215.497 61.839 159.048 53.338 271.873 40.982 435.882 92.422 215.497" fill="#3a6994"/><polygon points="246.596 482.811 92.422 215.497 40.982 435.882 246.596 482.811" fill="#6190bf"/><polygon points="519.752 155.73 400.771 215.497 515.012 439.674 519.752 155.73" fill="#162026"/><polygon points="246.596 482.811 400.771 215.497 92.422 215.497 246.596 482.811" fill="#174068"/><polygon points="515.012 439.674 400.771 215.497 246.596 482.811 515.012 439.674" fill="#0d181f"/><polygon points="515.012 439.674 404.427 501.298 296.01 566.714 246.596 482.811 515.012 439.674" fill="#121f26"/><polygon points="296.01 566.714 246.596 482.811 40.982 435.882 170.767 497.032 296.01 566.714" fill="#3c84a0"/></g><g><circle cx="94.753" cy="211.408" r="9.283" fill="#fff"/><path d="m103.133,207.415c44.035,92.402,95.262,181.202,153.209,265.578l-16.032,9.249c-44.035-92.402-95.262-181.202-153.209-265.578l16.032-9.249Z" fill="#fff"/><path d="m95.4,202.148c102.148,7.143,204.669,7.143,306.817,0v18.521c-102.148-7.143-204.669-7.143-306.817,0v-18.521Z" fill="#fff"/><path d="m103.549,214.374c-23.924,70.967-40.975,144.068-50.918,218.296l-17.998-4.198c23.924-70.967,40.975-144.068,50.918-218.296l17.998,4.198Z" fill="#fff"/><path d="m88.422,204.619c63.969-59.646,122.608-124.764,175.249-194.612l13.744,12.377c-63.969,59.646-122.608,124.764-175.249,194.612l-13.744-12.377Z" fill="#fff"/><path d="m85.52,212.376c-2.066-19.711-11.93-37.777-27.394-50.174l15.039-8.211c2.066,19.711,11.93,37.777,27.394,50.174l-15.039,8.211Z" fill="#fff"/><circle cx="402.864" cy="211.408" r="9.283" fill="#fff"/><path d="m410.559,216.602c-57.299,84.891-108.599,173.679-153.526,265.718l-16.037-9.266c57.299-84.891,108.599-173.679,153.526-265.718l16.037,9.266Z" fill="#fff"/><path d="m394.702,215.829c-37.272-68.818-81.069-133.896-130.787-194.338l15.332-10.318c37.272,68.818,81.069,133.896,130.787,194.338l-15.332,10.318Z" fill="#fff"/><path d="m411.441,207.855c31.964,77.153,69.94,151.676,113.58,222.879l-16.491,8.404c-31.964-77.153-69.94-151.676-113.58-222.879l16.491-8.404Z" fill="#fff"/><path d="m400.131,202.537c41.724-12.853,81.008-32.586,116.229-58.385l8.218,16.361c-41.724,12.853-81.008,32.586-116.229,58.385l-8.218-16.361Z" fill="#fff"/><circle cx="248.69" cy="478.248" r="9.283" fill="#fff"/><path d="m245.845,487.084c-66.412-21.383-134.565-36.925-203.681-46.451l4.112-18.033c66.412,21.383,134.565,36.925,203.681,46.451l-4.112,18.033Z" fill="#fff"/><path d="m257.526,475.402c9.698,30.106,25.871,57.723,47.383,80.91l-15.641,9.16c-9.698-30.106-25.871-57.723-47.383-80.91l15.641-9.16Z" fill="#fff"/><path d="m247.957,468.994c89.966-7.13,179.234-21.318,266.977-42.434l2.905,18.28c-89.966,7.13-179.234,21.318-266.977,42.434l-2.905-18.28Z" fill="#fff"/><circle cx="517.106" cy="435.585" r="9.283" fill="#fff"/><path d="m521.046,443.991c-76.07,35.662-148.881,77.899-217.602,126.228l-9.281-15.999c76.07-35.662,148.881-77.899,217.602-126.228l9.281,15.999Z" fill="#fff"/><path d="m507.864,434.711c8.887-93.904,10.464-188.356,4.716-282.504l18.508.309c-8.887,93.904-10.464,188.356-4.716,282.504l-18.508-.309Z" fill="#fff"/><circle cx="298.104" cy="562.626" r="9.283" fill="#fff"/><path d="m293.218,570.519c-80.91-50.077-165.63-93.718-253.378-130.521l8.476-16.454c80.91,50.077,165.63,93.718,253.378,130.521l-8.476,16.454Z" fill="#fff"/><circle cx="43.431" cy="431.438" r="9.283" fill="#fff"/><path d="m34.255,430.027c13.991-90.999,20.81-182.958,20.394-275.025l18.458,1.369c-13.991,90.999-20.81,182.958-20.394,275.025l-18.458-1.369Z" fill="#fff"/><circle cx="63.933" cy="154.959" r="9.283" fill="#fff"/><path d="m59.513,146.796C132.344,107.365,201.219,61.028,265.188,8.424l10.316,15.334c-72.831,39.431-141.706,85.768-205.675,138.372l-10.316-15.334Z" fill="#fff"/><circle cx="271.084" cy="15.594" r="9.283" fill="#fff"/><path d="m276.137,7.807c79.487,51.582,162.904,96.839,249.482,135.352l-8.826,16.269c-79.487-51.582-162.904-96.839-249.482-135.352l8.826-16.269Z" fill="#fff"/><circle cx="521.846" cy="151.641" r="9.283" fill="#fff"/></g></svg>