<?xml version="1.0" encoding="UTF-8"?><svg id="Layer_1" xmlns="http://www.w3.org/2000/svg" width="8in" height="3.5in" viewBox="0 0 576 252"><g><path d="m456.776,219.678v-34.44h-10.817v-2.143h23.778v2.143h-10.713v34.44h-2.248Z" fill="#fff"/><path d="m469.845,209.957v-6.741c0-5.854,3.972-10.4,10.243-10.4,6.324,0,10.243,4.547,10.243,10.4v4.546h-18.239v2.195c0,4.651,2.927,8.258,7.996,8.258,1.568,0,5.487-.209,9.251-3.92v2.561c-3.293,3.293-7.683,3.502-9.251,3.502-6.323,0-10.243-4.547-10.243-10.4Zm2.247-4.442h15.992v-2.299c0-4.651-3.031-8.258-7.996-8.258s-7.996,3.606-7.996,8.258v2.299Z" fill="#fff"/><path d="m497.285,203.216v6.794c0,4.65,2.927,8.257,7.996,8.257,1.568,0,5.487-.209,9.251-3.92v2.562c-3.293,3.292-7.683,3.501-9.251,3.501-6.323,0-10.243-4.547-10.243-10.399v-6.794c0-5.854,3.972-10.4,10.243-10.4,1.568,0,5.958.209,9.251,3.502v2.561c-3.764-3.711-7.683-3.92-9.251-3.92-4.965,0-7.996,3.606-7.996,8.258Z" fill="#fff"/><path d="m521.538,219.678v-36.583h2.247v10.452c2.874-.574,4.39-.731,7.525-.731,6.271,0,10.243,4.547,10.243,10.4v16.462h-2.247v-16.462c0-4.651-3.031-8.258-7.996-8.258-2.456,0-5.958.418-7.525.836v23.884h-2.247Z" fill="#fff"/></g><g><path d="m235.695,173.475v-17.719h3.45c12.073,0,15.993-3.92,15.993-15.993V63.715h20.07v82.634c0,17.562-9.564,27.126-27.283,27.126h-12.23Z" fill="#fff"/><path d="m289.948,132.394V63.715h19.913v69.619c0,16.307,7.84,24.461,19.914,24.617,12.073,0,19.442-8.311,19.442-24.617V63.715h19.757v68.679c0,25.558-13.955,43.276-39.199,43.276-24.932,0-39.827-17.091-39.827-43.276Z" fill="#fff"/><path d="m383.716,173.475V63.715h38.572c21.481,0,32.771,10.035,32.771,29.008,0,10.819-5.802,20.227-14.112,23.676,10.035,4.234,17.091,14.583,17.091,26.656,0,19.13-12.073,30.419-33.241,30.419h-41.081Zm20.07-64.758h15.993c9.879,0,15.21-5.174,15.21-13.798s-5.646-13.484-15.21-13.484h-15.993v27.283Zm0,47.04h19.129c9.252,0,15.053-5.958,15.053-14.425s-5.801-14.739-15.053-14.739h-19.129v29.164Z" fill="#fff"/><path d="m550.708,173.475h-19.443l-7.369-23.05h-37.476l-7.369,23.05h-19.443l35.123-109.76h20.854l35.123,109.76Zm-45.472-83.574l-13.172,42.807h26.186l-13.014-42.807Z" fill="#fff"/></g><g><g><polygon points="100.711 34.683 42.802 98.904 143.931 98.904 100.711 34.683" fill="#0a1b28"/><polygon points="100.711 34.683 143.931 98.904 182.953 79.302 100.711 34.683" fill="#082337"/><polygon points="100.711 34.683 32.772 80.39 42.802 98.904 100.711 34.683" fill="#324051"/><polygon points="42.802 98.904 32.772 80.39 29.984 117.393 25.931 171.183 42.802 98.904" fill="#3a6994"/><polygon points="93.366 186.574 42.802 98.904 25.931 171.183 93.366 186.574" fill="#6190bf"/><polygon points="182.953 79.302 143.931 98.904 181.399 172.427 182.953 79.302" fill="#162026"/><polygon points="93.366 186.574 143.931 98.904 42.802 98.904 93.366 186.574" fill="#174068"/><polygon points="181.399 172.427 143.931 98.904 93.366 186.574 181.399 172.427" fill="#0d181f"/><polygon points="181.399 172.427 145.13 192.638 109.573 214.092 93.366 186.574 181.399 172.427" fill="#121f26"/><polygon points="109.573 214.092 93.366 186.574 25.931 171.183 68.497 191.239 109.573 214.092" fill="#3c84a0"/></g><g><circle cx="43.566" cy="97.563" r="3.045" fill="#fff"/><path d="m46.315,96.253c14.442,30.305,31.243,59.429,50.248,87.101l-5.258,3.033c-14.442-30.305-31.243-59.429-50.248-87.101l5.258-3.033Z" fill="#fff"/><path d="m43.779,94.526c33.501,2.343,67.125,2.343,100.626,0v6.074c-33.501-2.343-67.125-2.343-100.626,0v-6.074Z" fill="#fff"/><path d="m46.451,98.536c-7.846,23.275-13.438,47.25-16.699,71.594l-5.903-1.377c7.846-23.275,13.438-47.25,16.699-71.594l5.903,1.377Z" fill="#fff"/><path d="m41.49,95.336c20.98-19.562,40.212-40.919,57.476-63.827l4.508,4.059c-20.98,19.562-40.212,40.919-57.476,63.827l-4.508-4.059Z" fill="#fff"/><path d="m40.538,97.88c-.678-6.465-3.913-12.39-8.984-16.455l4.932-2.693c.678,6.465,3.913,12.39,8.984,16.455l-4.932,2.693Z" fill="#fff"/><circle cx="144.618" cy="97.563" r="3.045" fill="#fff"/><path d="m147.141,99.266c-18.792,27.841-35.617,56.961-50.352,87.147l-5.26-3.039c18.792-27.841,35.617-56.961,50.352-87.147l5.26,3.039Z" fill="#fff"/><path d="m141.94,99.013c-12.224-22.57-26.588-43.914-42.894-63.737l5.028-3.384c12.224,22.57,26.588,43.914,42.894,63.737l-5.028,3.384Z" fill="#fff"/><path d="m147.43,96.398c10.483,25.304,22.938,49.745,37.251,73.097l-5.409,2.756c-10.483-25.304-22.938-49.745-37.251-73.097l5.409-2.756Z" fill="#fff"/><path d="m143.721,94.653c13.684-4.215,26.568-10.687,38.12-19.148l2.695,5.366c-13.684,4.215-26.568,10.687-38.12,19.148l-2.695-5.366Z" fill="#fff"/><circle cx="94.053" cy="185.078" r="3.045" fill="#fff"/><path d="m93.12,187.976c-21.781-7.013-44.133-12.11-66.801-15.234l1.349-5.914c21.781,7.013,44.133,12.11,66.801,15.234l-1.349,5.914Z" fill="#fff"/><path d="m96.951,184.145c3.18,9.874,8.485,18.931,15.54,26.536l-5.13,3.004c-3.18-9.874-8.485-18.931-15.54-26.536l5.13-3.004Z" fill="#fff"/><path d="m93.813,182.043c29.506-2.338,58.783-6.992,87.56-13.917l.953,5.995c-29.506,2.338-58.783,6.992-87.56,13.917l-.953-5.995Z" fill="#fff"/><circle cx="182.085" cy="171.086" r="3.045" fill="#fff"/><path d="m183.378,173.843c-24.949,11.696-48.828,25.548-71.367,41.399l-3.044-5.247c24.949-11.696,48.828-25.548,71.367-41.399l3.044,5.247Z" fill="#fff"/><path d="m179.054,170.799c2.915-30.798,3.432-61.775,1.547-92.653l6.07.101c-2.915,30.798-3.432,61.775-1.547,92.653l-6.07-.101Z" fill="#fff"/><circle cx="110.259" cy="212.751" r="3.045" fill="#fff"/><path d="m108.657,215.34c-26.536-16.424-54.322-30.737-83.1-42.807l2.78-5.396c26.536,16.424,54.322,30.737,83.1,42.807l-2.78,5.396Z" fill="#fff"/><circle cx="26.734" cy="169.726" r="3.045" fill="#fff"/><path d="m23.725,169.263c4.589-29.845,6.825-60.004,6.689-90.2l6.054.449c-4.589,29.845-6.825,60.004-6.689,90.2l-6.054-.449Z" fill="#fff"/><circle cx="33.458" cy="79.049" r="3.045" fill="#fff"/><path d="m32.009,76.372c23.886-12.932,46.475-28.129,67.455-45.382l3.383,5.029c-23.886,12.932-46.475,28.129-67.455,45.382l-3.383-5.029Z" fill="#fff"/><circle cx="101.398" cy="33.342" r="3.045" fill="#fff"/><path d="m103.055,30.788c26.069,16.917,53.428,31.76,81.822,44.391l-2.895,5.336c-26.069-16.917-53.428-31.76-81.822-44.391l2.895-5.336Z" fill="#fff"/><circle cx="183.64" cy="77.961" r="3.045" fill="#fff"/></g></g></svg>