<?xml version="1.0" encoding="UTF-8"?><svg id="Layer_2" xmlns="http://www.w3.org/2000/svg" width="8in" height="8in" viewBox="0 0 576 576"><g><polygon points="275.593 19.616 104.03 209.878 403.637 209.878 275.593 19.616" fill="#0a1b28"/><polygon points="275.593 19.616 403.637 209.878 519.246 151.805 275.593 19.616" fill="#1368aa"/><polygon points="275.593 19.616 74.315 155.03 104.03 209.878 275.593 19.616" fill="#2c394c"/><polygon points="104.03 209.878 74.315 155.03 54.049 424.015 104.03 209.878" fill="#1a334f"/><polygon points="253.834 469.613 104.03 209.878 54.049 424.015 253.834 469.613" fill="#3e5066"/><polygon points="519.246 151.805 403.637 209.878 514.64 427.7 519.246 151.805" fill="#162026"/><polygon points="253.834 469.613 403.637 209.878 104.03 209.878 253.834 469.613" fill="#4071ab"/><polygon points="514.64 427.7 403.637 209.878 253.834 469.613 514.64 427.7" fill="#1b3759"/><polygon points="514.64 427.7 301.847 551.138 253.834 469.613 514.64 427.7" fill="#336fa5"/><polygon points="301.847 551.138 253.834 469.613 54.049 424.015 301.847 551.138" fill="#09181f"/></g><g><line x1="53.876" y1="423.481" x2="301.674" y2="550.604" fill="none" stroke="#fff" stroke-miterlimit="10"/><line x1="253.661" y1="469.079" x2="301.674" y2="550.604" fill="none" stroke="#fff" stroke-miterlimit="10"/><line x1="53.876" y1="423.481" x2="253.661" y2="469.079" fill="none" stroke="#fff" stroke-miterlimit="10"/><line x1="103.858" y1="209.344" x2="53.876" y2="423.481" fill="none" stroke="#fff" stroke-miterlimit="10"/><line x1="253.661" y1="469.079" x2="103.858" y2="209.344" fill="none" stroke="#fff" stroke-miterlimit="10"/><line x1="403.464" y1="209.344" x2="103.858" y2="209.344" fill="none" stroke="#fff" stroke-miterlimit="10"/><line x1="253.661" y1="469.079" x2="403.464" y2="209.344" fill="none" stroke="#fff" stroke-miterlimit="10"/><line x1="514.467" y1="427.166" x2="403.464" y2="209.344" fill="none" stroke="#fff" stroke-miterlimit="10"/><line x1="253.661" y1="469.079" x2="514.467" y2="427.166" fill="none" stroke="#fff" stroke-miterlimit="10"/><line x1="519.073" y1="151.272" x2="514.467" y2="427.166" fill="none" stroke="#fff" stroke-miterlimit="10"/><line x1="403.464" y1="209.344" x2="519.073" y2="151.272" fill="none" stroke="#fff" stroke-miterlimit="10"/><line x1="74.142" y1="154.496" x2="53.876" y2="423.481" fill="none" stroke="#fff" stroke-miterlimit="10"/><line x1="103.858" y1="209.344" x2="74.142" y2="154.496" fill="none" stroke="#fff" stroke-miterlimit="10"/><line x1="275.42" y1="19.082" x2="103.858" y2="209.344" fill="none" stroke="#fff" stroke-miterlimit="10"/><line x1="74.142" y1="154.496" x2="275.42" y2="19.082" fill="none" stroke="#fff" stroke-miterlimit="10"/><line x1="519.073" y1="151.272" x2="275.42" y2="19.082" fill="none" stroke="#fff" stroke-miterlimit="10"/><line x1="403.464" y1="209.344" x2="275.42" y2="19.082" fill="none" stroke="#fff" stroke-miterlimit="10"/><line x1="514.467" y1="427.166" x2="301.674" y2="550.604" fill="none" stroke="#fff" stroke-miterlimit="10"/></g><g><circle cx="104.088" cy="209.344" r="6.314" fill="#fff"/><circle cx="403.464" cy="209.344" r="14.432" fill="#fff"/><circle cx="253.661" cy="468.619" r="21.648" fill="#fff"/><circle cx="514.467" cy="427.166" r="9.02" fill="#fff"/><circle cx="301.674" cy="550.604" r="11.726" fill="#fff"/><circle cx="54.221" cy="423.135" r="11.726" fill="#fff"/><circle cx="74.142" cy="154.496" r="17.138" fill="#fff"/><circle cx="275.42" cy="19.082" r="5.412" fill="#fff"/><circle cx="519.073" cy="151.272" r="14.432" fill="#fff"/></g></svg>