<?xml version="1.0" encoding="UTF-8"?><svg id="Layer_3" xmlns="http://www.w3.org/2000/svg" width="8in" height="3.5in" viewBox="0 0 576 252"><g><path d="m470.113,224.924v-36.673h-11.52v-2.281h25.32v2.281h-11.408v36.673h-2.393Z" fill="#fff"/><path d="m484.022,214.573v-7.179c0-6.232,4.229-11.074,10.907-11.074,6.733,0,10.907,4.842,10.907,11.074v4.842h-19.421v2.337c0,4.953,3.116,8.792,8.514,8.792,1.67,0,5.844-.222,9.85-4.173v2.727c-3.506,3.506-8.18,3.729-9.85,3.729-6.733,0-10.907-4.842-10.907-11.074Zm2.394-4.73h17.028v-2.448c0-4.953-3.228-8.793-8.515-8.793s-8.514,3.84-8.514,8.793v2.448Z" fill="#fff"/><path d="m513.235,207.395v7.234c0,4.952,3.116,8.792,8.514,8.792,1.67,0,5.844-.223,9.85-4.173v2.727c-3.506,3.506-8.18,3.729-9.85,3.729-6.733,0-10.907-4.842-10.907-11.074v-7.234c0-6.232,4.229-11.074,10.907-11.074,1.67,0,6.344.223,9.85,3.729v2.727c-4.006-3.951-8.18-4.174-9.85-4.174-5.286,0-8.514,3.84-8.514,8.793Z" fill="#fff"/><path d="m539.052,224.924v-38.954h2.393v11.13c3.061-.612,4.675-.779,8.014-.779,6.678,0,10.907,4.842,10.907,11.074v17.529h-2.393v-17.529c0-4.953-3.228-8.793-8.515-8.793-2.615,0-6.344.445-8.014.891v25.432h-2.393Z" fill="#fff"/></g><g><path d="m234.755,175.739v-18.863h3.672c12.854,0,17.027-4.173,17.027-17.027V58.888h21.367v87.973c0,18.696-10.183,28.879-29.046,28.879h-13.021Z" fill="#fff"/><path d="m292.512,132.003V58.888h21.2v74.117c0,17.361,8.347,26.041,21.2,26.208,12.854,0,20.699-8.847,20.699-26.208V58.888h21.033v73.115c0,27.21-14.856,46.073-41.732,46.073-26.542,0-42.4-18.195-42.4-46.073Z" fill="#fff"/><path d="m392.332,175.739V58.888h41.065c22.869,0,34.889,10.684,34.889,30.882,0,11.519-6.177,21.534-15.024,25.207,10.684,4.507,18.196,15.524,18.196,28.378,0,20.365-12.854,32.385-35.39,32.385h-43.736Zm21.367-68.942h17.027c10.517,0,16.192-5.509,16.192-14.69s-6.01-14.356-16.192-14.356h-17.027v29.046Zm0,50.079h20.366c9.849,0,16.025-6.344,16.025-15.357s-6.177-15.692-16.025-15.692h-20.366v31.049Z" fill="#fff"/><path d="m570.111,175.739h-20.7l-7.846-24.539h-39.896l-7.846,24.539h-20.699l37.393-116.852h22.202l37.393,116.852Zm-48.41-88.974l-14.022,45.572h27.878l-13.855-45.572Z" fill="#fff"/></g><g><g><polygon points="87.661 28.782 29.114 93.711 131.357 93.711 87.661 28.782" fill="#0a1b28"/><polygon points="87.661 28.782 131.357 93.711 170.809 73.893 87.661 28.782" fill="#1368aa"/><polygon points="87.661 28.782 18.973 74.993 29.114 93.711 87.661 28.782" fill="#2c394c"/><polygon points="29.114 93.711 18.973 74.993 12.057 166.787 29.114 93.711" fill="#1a334f"/><polygon points="80.235 182.347 29.114 93.711 12.057 166.787 80.235 182.347" fill="#3e5066"/><polygon points="170.809 73.893 131.357 93.711 169.238 168.044 170.809 73.893" fill="#162026"/><polygon points="80.235 182.347 131.357 93.711 29.114 93.711 80.235 182.347" fill="#4071ab"/><polygon points="169.238 168.044 131.357 93.711 80.235 182.347 169.238 168.044" fill="#1b3759"/><polygon points="169.238 168.044 96.62 210.168 80.235 182.347 169.238 168.044" fill="#336fa5"/><polygon points="96.62 210.168 80.235 182.347 12.057 166.787 96.62 210.168" fill="#09181f"/></g><g><line x1="11.998" y1="166.604" x2="96.561" y2="209.986" fill="none" stroke="#fff" stroke-miterlimit="10"/><line x1="80.177" y1="182.165" x2="96.561" y2="209.986" fill="none" stroke="#fff" stroke-miterlimit="10"/><line x1="11.998" y1="166.604" x2="80.177" y2="182.165" fill="none" stroke="#fff" stroke-miterlimit="10" stroke-width="2.5"/><line x1="29.055" y1="93.529" x2="11.998" y2="166.604" fill="none" stroke="#fff" stroke-miterlimit="10" stroke-width=".5"/><line x1="80.177" y1="182.165" x2="29.055" y2="93.529" fill="none" stroke="#fff" stroke-miterlimit="10" stroke-width=".5"/><line x1="131.298" y1="93.529" x2="29.055" y2="93.529" fill="none" stroke="#fff" stroke-miterlimit="10" stroke-width=".5"/><line x1="80.177" y1="182.165" x2="131.298" y2="93.529" fill="none" stroke="#fff" stroke-miterlimit="10" stroke-width="2.5"/><line x1="169.179" y1="167.862" x2="131.298" y2="93.529" fill="none" stroke="#fff" stroke-miterlimit="10" stroke-width=".5"/><line x1="80.177" y1="182.165" x2="169.179" y2="167.862" fill="none" stroke="#fff" stroke-miterlimit="10" stroke-width=".5"/><line x1="170.75" y1="73.711" x2="169.179" y2="167.862" fill="none" stroke="#fff" stroke-miterlimit="10"/><line x1="131.298" y1="93.529" x2="170.75" y2="73.711" fill="none" stroke="#fff" stroke-miterlimit="10" stroke-width="2.5"/><line x1="18.914" y1="74.811" x2="11.998" y2="166.604" fill="none" stroke="#fff" stroke-miterlimit="10"/><line x1="29.055" y1="93.529" x2="18.914" y2="74.811" fill="none" stroke="#fff" stroke-miterlimit="10"/><line x1="87.602" y1="28.6" x2="29.055" y2="93.529" fill="none" stroke="#fff" stroke-miterlimit="10" stroke-width=".5"/><line x1="18.914" y1="74.811" x2="87.602" y2="28.6" fill="none" stroke="#fff" stroke-miterlimit="10"/><line x1="170.75" y1="73.711" x2="87.602" y2="28.6" fill="none" stroke="#fff" stroke-miterlimit="10"/><line x1="131.298" y1="93.529" x2="87.602" y2="28.6" fill="none" stroke="#fff" stroke-miterlimit="10" stroke-width=".5"/><line x1="169.179" y1="167.862" x2="96.561" y2="209.986" fill="none" stroke="#fff" stroke-miterlimit="10"/></g><g><circle cx="29.133" cy="93.529" r="2.155" fill="#fff"/><circle cx="131.298" cy="93.529" r="9.962" fill="#fff"/><circle cx="80.177" cy="182.008" r="9.962" fill="#fff"/><circle cx="169.179" cy="167.862" r="3.078" fill="#fff"/><circle cx="96.561" cy="209.986" r="4.002" fill="#fff"/><circle cx="12.116" cy="166.487" r="7.116" fill="#fff"/><circle cx="18.914" cy="74.811" r="4.27" fill="#fff"/><circle cx="87.602" cy="28.6" r="2.846" fill="#fff"/><circle cx="170.75" cy="73.711" r="7.828" fill="#fff"/></g></g></svg>